<?xml version="1.0" encoding="UTF-8"?>
<svg width="52px" height="52px" viewBox="0 0 52 52" version="1.1" xmlns="http://www.w3.org/2000/svg" xmlns:xlink="http://www.w3.org/1999/xlink">
    <title>切图005</title>
    <g id="中小桥轻量化H5界面" stroke="none" stroke-width="1" fill="none" fill-rule="evenodd">
        <g id="切图" transform="translate(-164.000000, -817.000000)" fill-rule="nonzero">
            <g id="编组" transform="translate(164.000000, 817.000000)">
                <path d="M26,0 C11.6405797,0 0,11.6405797 0,26 C0,40.3594203 11.6405797,52 26,52 C40.3594203,52 52,40.3594203 52,26 C52,11.6405797 40.3594203,0 26,0 Z" id="路径" fill="#F0F0F0"></path>
                <path d="M42,26 C41.9957771,27.4356167 40.8330289,28.5983649 39.3974122,28.6025878 L28.6025878,28.6025878 L28.6025878,39.3974122 C28.5983649,40.8330289 27.4356167,41.9957771 26,42 C24.5643833,41.9957771 23.4016351,40.8330289 23.3974122,39.3974122 L23.3974122,28.6025878 L12.6025878,28.6025878 C11.1669711,28.5983649 10.0042229,27.4356167 10,26 C10.0042229,24.5643833 11.1669711,23.4016351 12.6025878,23.3974122 L23.3974122,23.3974122 L23.3974122,12.6025878 C23.4016351,11.1669711 24.5643833,10.0042229 26,10 C27.4356167,10.0042229 28.5983649,11.1669711 28.6025878,12.6025878 L28.6025878,23.3974122 L39.3974122,23.3974122 C40.8330289,23.4016351 41.9957771,24.5643833 42,26 Z" id="路径" fill="#CDCDCD"></path>
            </g>
        </g>
    </g>
</svg>