<?xml version="1.0" encoding="UTF-8"?>
<svg width="38px" height="38px" viewBox="0 0 38 38" version="1.1" xmlns="http://www.w3.org/2000/svg" xmlns:xlink="http://www.w3.org/1999/xlink">
    <title>切图008</title>
    <g id="中小桥轻量化H5界面" stroke="none" stroke-width="1" fill="none" fill-rule="evenodd">
        <g id="切图" transform="translate(-164.000000, -931.000000)" fill="#15BAC5" fill-rule="nonzero">
            <g id="编组备份-7" transform="translate(164.000000, 931.000000)">
                <path d="M18.9446504,0.00901946504 C8.48648636,0.00901946504 0.00905720339,8.48667505 0.00905720339,18.9446127 C0.00905720339,29.4025881 8.48648636,37.8802059 18.9446504,37.8802059 C29.4023994,37.8802059 37.8802436,29.4025881 37.8802436,18.9446127 C37.8802436,8.48667505 29.4023994,0.00901946504 18.9446504,0.00901946504 Z M30.7436202,14.296871 L17.4928185,27.074283 C17.3219806,27.2453319 17.1232179,27.3859871 16.9050814,27.4901973 C16.0729509,28.0847272 14.9095531,28.0089109 14.1624848,27.2617293 L8.47214579,21.5712771 C7.64005297,20.7392221 7.64005297,19.390529 8.47214579,18.5588136 C9.30378575,17.726683 10.6525543,17.726683 11.4846094,18.5588136 L15.7568545,22.83087 L27.7310812,11.2841433 C28.5630608,10.4522769 29.9119048,10.4522769 30.7435448,11.2841433 C31.5756753,12.1160851 31.5756753,13.4649292 30.7436202,14.2968333 L30.7436202,14.296871 Z" id="形状"></path>
            </g>
        </g>
    </g>
</svg>