<?xml version="1.0" encoding="UTF-8"?>
<svg width="63px" height="63px" viewBox="0 0 63 63" version="1.1" xmlns="http://www.w3.org/2000/svg" xmlns:xlink="http://www.w3.org/1999/xlink">
    <title>编组备份 4</title>
    <g id="中小桥轻量化H5界面" stroke="none" stroke-width="1" fill="none" fill-rule="evenodd">
        <g id="切图" transform="translate(-79.000000, -67.000000)" fill="#504D4B" fill-rule="nonzero">
            <g id="编组备份-4" transform="translate(79.000000, 67.000000)">
                <path d="M58.7046393,54.5599657 L58.7046393,27.4602099 C58.7046393,25.2580674 57.0086584,23.4728473 54.9164217,23.4728473 C37.9754754,23.4728473 26.5039846,23.4728473 20.5019495,23.4728473 C20.2070218,23.4728473 20.2070218,16.5171954 20.5019495,2.60589142 C19.8513934,1.43852729 18.4863542,0.854845223 16.4068319,0.854845223 C13.2875484,0.854845223 13.7284043,2.60589142 13.6022672,2.60589142 C12.8916583,2.60589142 14.2188499,23.4728473 13.5560388,23.4728473 C12.4035694,23.4728473 10.6748652,23.4728473 8.36992634,23.4728473 C6.27775958,23.4728473 4.58177875,25.2580674 4.58177875,27.4602099 L4.58177875,54.5599657 L0,54.5599657 L0,63 L8.87727941,63 L13.6022672,63 L29.6385977,63 L34.3636554,63 L49.2545238,63 L53.9795116,63 L63,63 L63,54.5599657 L58.7046393,54.5599657 Z" id="路径"></path>
            </g>
        </g>
    </g>
</svg>