<?xml version="1.0" encoding="UTF-8"?>
<svg width="76px" height="67px" viewBox="0 0 76 67" version="1.1" xmlns="http://www.w3.org/2000/svg" xmlns:xlink="http://www.w3.org/1999/xlink">
    <title>切图004</title>
    <defs>
        <filter id="filter-1">
            <feColorMatrix in="SourceGraphic" type="matrix" values="0 0 0 0 0.658824 0 0 0 0 0.654902 0 0 0 0 0.650980 0 0 0 1.000000 0"></feColorMatrix>
        </filter>
        <filter id="filter-2">
            <feColorMatrix in="SourceGraphic" type="matrix" values="0 0 0 0 0.360784 0 0 0 0 0.392157 0 0 0 0 0.435294 0 0 0 1.000000 0"></feColorMatrix>
        </filter>
    </defs>
    <g id="中小桥轻量化H5界面" stroke="none" stroke-width="1" fill="none" fill-rule="evenodd">
        <g id="切图" transform="translate(-324.000000, -311.000000)">
            <g filter="url(#filter-1)" id="编组备份-3">
                <g transform="translate(328.000000, 314.000000)">
                    <g filter="url(#filter-2)" id="编组">
                        <g>
                            <path d="M66.9341847,33.1012793 L62.7878193,24.5820896 C62.4587426,23.2164179 61.2740668,22.891258 60.3526523,22.891258 L56.2062868,22.891258 L56.2062868,3.0565032 C56.2062868,1.36567164 54.7583497,0 53.1129666,0 C51.4017682,0 50.0196464,1.43070362 50.0196464,3.0565032 L50.0196464,22.826226 L17.1777996,22.826226 L17.1777996,3.0565032 C17.1777996,1.36567164 15.7298625,0 14.0844794,0 C12.3732809,0 10.9911591,1.43070362 10.9911591,3.0565032 L10.9911591,22.826226 L6.51571709,22.826226 C5.52848723,22.826226 5.13359528,23.1513859 4.47544204,24.5170576 L0,33.0362473 L0,59.3091684 C0,60.2846482 0.78978389,61 1.71119843,61 L65.2888016,61 C66.2760314,61 67,60.2196162 67,59.3091684 L67,33.1012793 L66.9341847,33.1012793 Z M7.17387033,31.7356077 L8.22691552,29.7196162 C8.88506876,28.3539446 9.01669941,28.0287846 9.93811395,28.0287846 L56.6011788,28.0287846 C57.5884086,28.0287846 57.9833006,28.3539446 58.6414538,29.7196162 L59.694499,31.7356077 C60.0235756,32.7761194 61.3398821,34.141791 60.3526523,34.141791 L6.51571709,34.141791 C5.52848723,34.141791 6.84479371,32.7761194 7.17387033,31.7356077 Z M27.3791749,51.8955224 C25.1414538,51.8955224 23.4302554,50.1396588 23.4302554,47.9936034 C23.4302554,45.782516 25.2072692,44.0916844 27.3791749,44.0916844 C29.6168959,44.0916844 31.3280943,45.847548 31.3280943,47.9936034 C31.3939096,50.1396588 29.6168959,51.8955224 27.3791749,51.8955224 Z M37.3831041,51.8955224 C35.1453831,51.8955224 33.4341847,50.1396588 33.4341847,47.9936034 C33.4341847,45.782516 35.2111984,44.0916844 37.3831041,44.0916844 C39.6208251,44.0916844 41.3320236,45.847548 41.3320236,47.9936034 C41.3978389,50.1396588 39.6208251,51.8955224 37.3831041,51.8955224 Z M53.3104126,51.8955224 L47.1237721,51.8955224 C44.9518664,51.8955224 43.1748527,50.1396588 43.1748527,47.9936034 C43.1748527,45.847548 44.9518664,44.0916844 47.1237721,44.0916844 L53.3104126,44.0916844 C55.4823183,44.0916844 57.259332,45.847548 57.259332,47.9936034 C57.259332,50.1396588 55.4823183,51.8955224 53.3104126,51.8955224 Z" id="形状" fill="#383838" fill-rule="nonzero"></path>
                        </g>
                    </g>
                </g>
            </g>
        </g>
    </g>
</svg>