<?xml version="1.0" encoding="UTF-8"?>
<svg width="49px" height="46px" viewBox="0 0 49 46" version="1.1" xmlns="http://www.w3.org/2000/svg" xmlns:xlink="http://www.w3.org/1999/xlink">
    <title>切图0013</title>
    <g id="中小桥轻量化H5界面" stroke="none" stroke-width="1" fill="none" fill-rule="evenodd">
        <g id="切图" transform="translate(-483.000000, -832.000000)" fill="#CDCDCD" fill-rule="nonzero">
            <path d="M491.934419,843.316456 C494.303974,843.316456 496.576479,844.267335 498.252007,845.95991 C499.927536,847.652485 500.868838,849.948109 500.868838,852.341772 L500.868838,870.974684 C500.868838,875.959228 496.868762,880 491.934419,880 C487.000076,880 483,875.959228 483,870.974684 L483,852.341772 C483,849.948109 483.941302,847.652485 485.616831,845.95991 C487.292359,844.267335 489.564864,843.316456 491.934419,843.316456 Z M491.934419,846.658228 C488.620711,846.658228 485.934419,848.988175 485.934419,851.86231 L485.934419,871.454146 C485.934419,874.328281 488.620711,876.658228 491.934419,876.658228 C495.248128,876.658228 497.934419,874.328281 497.934419,871.454146 L497.934419,851.86231 C497.934419,848.988175 495.248128,846.658228 491.934419,846.658228 Z M525.078232,868.571038 L525.078232,873.303798 C525.078232,874.33023 524.322438,875.196431 523.314405,875.325468 L523.060782,875.341772 L502.381349,875.341772 L502.381349,871.265823 L521.043333,871.265823 L521.043333,868.571038 L525.078232,868.571038 L525.078232,868.571038 Z M529.977752,842.319595 C531.776164,842.319595 532.67537,844.51362 531.404953,845.799291 L525.463277,854.654582 L531.404953,863.325874 C532.615423,864.548658 531.856862,866.598279 530.229069,866.789266 L529.977752,866.80557 L516.143813,866.80557 C514.433016,866.80557 513.53381,864.814177 514.550604,863.514532 L514.716611,863.325874 L520.655983,854.654582 L514.716611,845.799291 C513.4485,844.51362 514.347706,842.319595 516.143813,842.319595 L529.977752,842.319595 L529.977752,842.319595 Z M522.913375,856 L518,864 L528,864 L522.913375,856 L522.913375,856 Z M528.118424,845 L518.118424,845 L523.031799,853 L528.118424,845 L528.118424,845 Z M523.060782,834 C524.089105,834 524.937587,834.777924 525.062092,835.781772 L525.078232,836.037975 L525.078232,840.819646 L521.043333,840.819646 L521.043333,838.075949 L495.104697,838.075949 L495.104697,841.893367 L491.069798,841.88638 L491.069798,836.037975 C491.069798,834.99919 491.839887,834.142076 492.833625,834.016304 L493.087247,834 L523.060782,834 L523.060782,834 Z" id="形状"></path>
        </g>
    </g>
</svg>