<?xml version="1.0" encoding="UTF-8"?>
<svg width="47px" height="46px" viewBox="0 0 47 46" version="1.1" xmlns="http://www.w3.org/2000/svg" xmlns:xlink="http://www.w3.org/1999/xlink">
    <title>切图0012</title>
    <defs>
        <filter id="filter-1">
            <feColorMatrix in="SourceGraphic" type="matrix" values="0 0 0 0 0.803922 0 0 0 0 0.803922 0 0 0 0 0.803922 0 0 0 1.000000 0"></feColorMatrix>
        </filter>
    </defs>
    <g id="中小桥轻量化H5界面" stroke="none" stroke-width="1" fill="none" fill-rule="evenodd">
        <g id="切图" transform="translate(-280.000000, -832.000000)">
            <g filter="url(#filter-1)" id="编组备份-4">
                <g transform="translate(281.000000, 832.000000)">
                    <path d="M26.53125,46 L5,46 C2.24479167,46 0,43.7053241 0,40.8888889 L0,5.11111111 C0,2.29467593 2.24479167,0 5,0 L40,0 C42.7552083,0 45,2.29467593 45,5.11111111 L45,27.1953704 C45,28.1377315 44.2552083,28.8990741 43.3333333,28.8990741 C42.4114583,28.8990741 41.6666667,28.1377315 41.6666667,27.1953704 L41.6666667,5.11111111 C41.6666667,4.17407407 40.9166667,3.40740741 40,3.40740741 L5,3.40740741 C4.08333333,3.40740741 3.33333333,4.17407407 3.33333333,5.11111111 L3.33333333,40.8888889 C3.33333333,41.8259259 4.08333333,42.5925926 5,42.5925926 L26.53125,42.5925926 C27.453125,42.5925926 28.1979167,43.3539352 28.1979167,44.2962963 C28.1979167,45.2386574 27.453125,46 26.53125,46 Z" id="路径" fill="#000000" fill-rule="nonzero"></path>
                    <path d="M32.3082044,14.335418 L8.69179557,14.335418 C7.75602115,14.335418 7,13.5901605 7,12.667709 C7,11.7452575 7.75602115,11 8.69179557,11 L32.3082044,11 C33.2439789,11 34,11.7452575 34,12.667709 C34,13.5901605 33.2439789,14.335418 32.3082044,14.335418 Z M16.2414333,25.1703148 L8.69179557,25.1703148 C7.75602115,25.1703148 7,24.4250573 7,23.5026058 C7,22.5801543 7.75602115,21.8348968 8.69179557,21.8348968 L16.2361465,21.8348968 C17.1719209,21.8348968 17.9279694,22.5801543 17.9279694,23.5026058 C17.9332289,24.4198457 17.1719209,25.1703148 16.2414333,25.1703148 Z M16.2414333,36 L8.69179557,36 C7.75602115,36 7,35.2547425 7,34.332291 C7,33.4098395 7.75602115,32.664582 8.69179557,32.664582 L16.2361465,32.664582 C17.1719209,32.664582 17.9279694,33.4098395 17.9279694,34.332291 C17.9332289,35.2547425 17.1719209,36 16.2414333,36 Z" id="形状" fill="#000000" fill-rule="nonzero"></path>
                    <path d="M28.5,38 C23.8151163,38 20,33.9604651 20,29 C20,24.0395349 23.8151163,20 28.5,20 C33.1848837,20 37,24.0395349 37,29 C37,33.9604651 33.1898256,38 28.5,38 Z M28.5,23.3488372 C25.5546512,23.3488372 23.1627907,25.8813953 23.1627907,29 C23.1627907,32.1186047 25.5546512,34.6511628 28.5,34.6511628 C31.4453488,34.6511628 33.8372093,32.1186047 33.8372093,29 C33.8372093,25.8813953 31.4453488,23.3488372 28.5,23.3488372 Z" id="形状" fill="#000000" fill-rule="nonzero"></path>
                    <path d="M39.1812052,42.5160597 L33.4842181,36.8223401 C32.838594,36.1770863 32.838594,35.1291941 33.4842181,34.4839403 C34.1298422,33.8386866 35.1783357,33.8386866 35.8239598,34.4839403 L41.5157819,40.1776599 C42.161406,40.8229137 42.161406,41.8708059 41.5157819,42.5160597 C40.8701578,43.1613134 39.8268293,43.1613134 39.1812052,42.5160597 L39.1812052,42.5160597 Z" id="路径" fill="#000000" fill-rule="nonzero"></path>
                </g>
            </g>
        </g>
    </g>
</svg>