<?xml version="1.0" encoding="UTF-8"?>
<svg width="47px" height="46px" viewBox="0 0 47 46" version="1.1" xmlns="http://www.w3.org/2000/svg" xmlns:xlink="http://www.w3.org/1999/xlink">
    <title>切图0016</title>
    <defs>
        <filter id="filter-1">
            <feColorMatrix in="SourceGraphic" type="matrix" values="0 0 0 0 0.082353 0 0 0 0 0.725490 0 0 0 0 0.768627 0 0 0 1.000000 0"></feColorMatrix>
        </filter>
    </defs>
    <g id="中小桥轻量化H5界面" stroke="none" stroke-width="1" fill="none" fill-rule="evenodd">
        <g id="切图" transform="translate(-381.000000, -768.000000)">
            <g filter="url(#filter-1)" id="编组">
                <g transform="translate(382.000000, 770.000000)">
                    <path d="M44.3320923,8 L12.6679077,8 C11.7453462,8 11,7.3296875 11,6.5 C11,5.6703125 11.7453462,5 12.6679077,5 L44.3320923,5 C45.2546538,5 46,5.6703125 46,6.5 C46,7.3296875 45.2546538,8 44.3320923,8 Z" id="路径" fill="#000000" fill-rule="nonzero"></path>
                    <path d="M11.5405345,12.937628 L1.61688749,12.937628 C0.722546598,12.937628 0,12.2155043 0,11.3216869 L0,1.61594104 C0,0.722123652 0.722546598,0 1.61688749,0 L11.5405345,0 C12.4348754,0 13.157422,0.722123652 13.157422,1.61594104 L13.157422,11.3267367 C13.157422,12.2155043 12.4348754,12.937628 11.5405345,12.937628 Z M3.23377498,9.70574587 L9.92364698,9.70574587 L9.92364698,3.23188208 L3.23377498,3.23188208 L3.23377498,9.70574587 Z M43.3881653,37 L12.687514,37 C11.7931731,37 11.0706265,36.2778763 11.0706265,35.384059 C11.0706265,34.4902416 11.7931731,33.7681179 12.687514,33.7681179 L43.3831125,33.7681179 C44.2774534,33.7681179 45,34.4902416 45,35.384059 C45,36.2778763 44.2774534,37 43.3881653,37 Z" id="形状" fill="#000000" fill-rule="nonzero"></path>
                    <path d="M11.4074046,42 L1.59753588,42 C0.713898846,42 0,41.274395 0,40.3762685 L0,30.6237315 C0,29.725605 0.713898846,29 1.59753588,29 L11.4024123,29 C12.2860494,29 12.9999742,29.725605 12.9999742,30.6237315 L12.9999742,40.3813427 C13.0049405,41.274395 12.2910417,42 11.4074046,42 L11.4074046,42 Z M3.19507176,38.7525371 L9.80487646,38.7525371 L9.80487646,32.2474629 L3.19507176,32.2474629 L3.19507176,38.7525371 Z" id="形状" fill="#000000" fill-rule="nonzero"></path>
                    <path d="M33.3373045,23 L1.66790767,23 C0.74534624,23 0,22.3296875 0,21.5 C0,20.6703125 0.74534624,20 1.66790767,20 L33.3320923,20 C34.2546538,20 35,20.6703125 35,21.5 C35,22.3296875 34.2546538,23 33.3373045,23 Z" id="路径" fill="#000000" fill-rule="nonzero"></path>
                    <path d="M44.407405,28 L34.5975359,28 C33.7138989,28 33,27.274395 33,26.3762685 L33,16.6237315 C33,15.725605 33.7138989,15 34.5975359,15 L44.4024127,15 C45.2860497,15 45.9999744,15.725605 45.9999744,16.6237315 L45.9999744,26.3762685 C46.0049409,27.274395 45.2860497,28 44.407405,28 Z M36.1950718,24.7525371 L42.8048767,24.7525371 L42.8048767,18.2474629 L36.1950718,18.2474629 L36.1950718,24.7525371 Z" id="形状" fill="#000000" fill-rule="nonzero"></path>
                </g>
            </g>
        </g>
    </g>
</svg>