<?xml version="1.0" encoding="UTF-8"?>
<svg width="51px" height="46px" viewBox="0 0 51 46" version="1.1" xmlns="http://www.w3.org/2000/svg" xmlns:xlink="http://www.w3.org/1999/xlink">
    <title>切图0013</title>
    <g id="中小桥轻量化H5界面" stroke="none" stroke-width="1" fill="none" fill-rule="evenodd">
        <g id="切图" transform="translate(-565.000000, -773.000000)" fill="#15B9C4" fill-rule="nonzero">
            <g id="编组备份-9" transform="translate(565.000000, 773.000000)">
                <path d="M5.78024258,18 C5.58989905,18 5.40084839,17.9683229 5.22059004,17.9064978 C4.28214729,17.5739456 3.78036312,16.5422045 4.09275993,15.5875153 C7.08667737,6.2641158 15.4951476,0 25.0161345,0 C34.486708,0 42.8808646,6.22079719 45.9044618,15.4795913 C46.2213528,16.4328255 45.7246959,17.4670711 44.7879457,17.8046405 C44.3382495,17.9582895 43.8463575,17.9227132 43.4228603,17.7059101 C42.9993632,17.489107 42.6798016,17.1092717 42.5360218,16.6518014 C40.0003511,8.88638178 32.9595696,3.66962908 25.0161345,3.66962908 C17.0303901,3.66962908 9.97771557,8.9231547 7.46688326,16.7419509 C7.23376641,17.4866921 6.55267844,17.9947091 5.78024258,18 L5.78024258,18 Z M25.4679373,45 C15.560255,45 6.96548336,38.7662337 4.08056014,29.4879042 C3.78698797,28.5624422 4.3204558,27.5819261 5.27945323,27.2843336 C5.74019575,27.1501154 6.23777676,27.1989388 6.66069658,27.4198632 C7.0836164,27.6407876 7.39651346,28.0153408 7.52927271,28.4595917 C9.94883752,36.2402843 17.1576759,41.4679747 25.4679373,41.4679747 C33.7421144,41.4679747 41.1427971,36.0401041 43.4645181,28.2683266 C43.5922056,27.8225442 43.900891,27.4445743 44.3213971,27.2191207 C44.7419032,26.9936672 45.2390671,26.9395826 45.7014733,27.0689874 C46.6639463,27.3565314 47.2084669,28.3316953 46.9250275,29.2602101 C44.1575915,38.5275238 35.3327029,45 25.4679373,45 L25.4679373,45 Z M23.0472927,32 C22.2868105,31.99953 21.6108595,31.5069772 21.3656905,30.7746479 L17.7855049,20.5075139 L15.2403228,23.6314667 C14.9042676,24.0470352 14.4034123,24.288317 13.8744447,24.2894643 L1.79407324,24.2894643 C0.798092728,24.2713658 0,23.4448377 0,22.4314698 C0,21.418102 0.798092728,20.5915739 1.79407324,20.5734754 L13.0434437,20.5734754 L17.0489034,15.6574626 C17.4560641,15.1534221 18.0993788,14.9128515 18.7305057,15.0286195 C19.3636444,15.1498691 19.8847885,15.6061396 20.0969665,16.2249788 L23.5296198,26.069453 L26.7398358,21.1156632 C27.1051302,20.5444292 27.7556001,20.231267 28.4214381,20.3060729 C29.0885144,20.3866371 29.6556369,20.8391589 29.8914628,21.4790439 L30.7491096,23.7674852 L32.5592265,21.0127332 C32.8876799,20.508144 33.4422983,20.2039353 34.0371972,20.2020651 L49.2044086,20.2020651 C50.2009943,20.2193317 51,21.0461176 51,22.0600865 C51,23.0740554 50.2009943,23.9008414 49.2044086,23.9181079 L34.9812974,23.9181079 L31.790046,28.7742489 C31.4214784,29.3432217 30.7692184,29.6523783 30.1039087,29.5734399 C29.438599,29.4945016 28.8737838,29.0409402 28.6438224,28.4009524 L27.7959757,26.1384322 L24.5311966,31.1791466 C24.203984,31.6894398 23.6463012,31.9979561 23.0473987,32 L23.0472927,32 Z" id="形状"></path>
            </g>
        </g>
    </g>
</svg>