<?xml version="1.0" encoding="UTF-8"?>
<svg width="49px" height="46px" viewBox="0 0 49 46" version="1.1" xmlns="http://www.w3.org/2000/svg" xmlns:xlink="http://www.w3.org/1999/xlink">
    <title>切图0013</title>
    <g id="中小桥轻量化H5界面" stroke="none" stroke-width="1" fill="none" fill-rule="evenodd">
        <g id="切图" transform="translate(-483.000000, -773.000000)" fill="#15B9C4" fill-rule="nonzero">
            <path d="M491.934419,782.316456 C494.303974,782.316456 496.576479,783.267335 498.252007,784.95991 C499.927536,786.652485 500.868838,788.948109 500.868838,791.341772 L500.868838,809.974684 C500.868838,814.959228 496.868762,819 491.934419,819 C487.000076,819 483,814.959228 483,809.974684 L483,791.341772 C483,788.948109 483.941302,786.652485 485.616831,784.95991 C487.292359,783.267335 489.564864,782.316456 491.934419,782.316456 Z M491.934419,785.658228 C488.620711,785.658228 485.934419,787.988175 485.934419,790.86231 L485.934419,810.454146 C485.934419,813.328281 488.620711,815.658228 491.934419,815.658228 C495.248128,815.658228 497.934419,813.328281 497.934419,810.454146 L497.934419,790.86231 C497.934419,787.988175 495.248128,785.658228 491.934419,785.658228 Z M525.078232,807.571038 L525.078232,812.303798 C525.078232,813.33023 524.322438,814.196431 523.314405,814.325468 L523.060782,814.341772 L502.381349,814.341772 L502.381349,810.265823 L521.043333,810.265823 L521.043333,807.571038 L525.078232,807.571038 L525.078232,807.571038 Z M529.977752,781.319595 C531.776164,781.319595 532.67537,783.51362 531.404953,784.799291 L525.463277,793.654582 L531.404953,802.325874 C532.615423,803.548658 531.856862,805.598279 530.229069,805.789266 L529.977752,805.80557 L516.143813,805.80557 C514.433016,805.80557 513.53381,803.814177 514.550604,802.514532 L514.716611,802.325874 L520.655983,793.654582 L514.716611,784.799291 C513.4485,783.51362 514.347706,781.319595 516.143813,781.319595 L529.977752,781.319595 L529.977752,781.319595 Z M522.913375,795 L518,803 L528,803 L522.913375,795 L522.913375,795 Z M528.118424,784 L518.118424,784 L523.031799,792 L528.118424,784 L528.118424,784 Z M523.060782,773 C524.089105,773 524.937587,773.777924 525.062092,774.781772 L525.078232,775.037975 L525.078232,779.819646 L521.043333,779.819646 L521.043333,777.075949 L495.104697,777.075949 L495.104697,780.893367 L491.069798,780.88638 L491.069798,775.037975 C491.069798,773.99919 491.839887,773.142076 492.833625,773.016304 L493.087247,773 L523.060782,773 L523.060782,773 Z" id="形状备份"></path>
        </g>
    </g>
</svg>