<?xml version="1.0" encoding="UTF-8"?>
<svg width="30px" height="29px" viewBox="0 0 30 29" version="1.1" xmlns="http://www.w3.org/2000/svg" xmlns:xlink="http://www.w3.org/1999/xlink">
    <title>切图007</title>
    <defs>
        <filter id="filter-1">
            <feColorMatrix in="SourceGraphic" type="matrix" values="0 0 0 0 0.000000 0 0 0 0 0.000000 0 0 0 0 0.000000 0 0 0 1.000000 0"></feColorMatrix>
        </filter>
    </defs>
    <g id="中小桥轻量化H5界面" stroke="none" stroke-width="1" fill="none" fill-rule="evenodd">
        <g id="切图" transform="translate(-312.000000, -832.000000)">
            <g filter="url(#filter-1)" id="编组">
                <g transform="translate(312.000000, 832.000000)">
                    <path d="M12.502555,3.72033794 C13.165815,2.86925916 13.165815,1.48938783 12.502555,0.638309067 C11.839295,-0.212769699 10.7639381,-0.212769687 10.1006782,0.638309092 L0.499960548,12.9598902 C0.17996463,13.3675771 0,13.922277 0,14.5009046 C0,15.0795322 0.17996463,15.6342321 0.499960548,16.041919 L10.1006782,28.3613221 C10.5294289,28.9118735 11.1545085,29.127096 11.7404556,28.9259171 C12.3264026,28.7247383 12.7841978,28.137722 12.941394,27.3859917 C13.0985903,26.6342614 12.9313058,25.8320227 12.502555,25.2814713 L4.10022966,14.4998156 L12.502555,3.71815981 L12.502555,3.72033794 Z" id="路径" fill="#FFFFFF" fill-rule="nonzero"></path>
                    <path d="M2,15 C2,13.8954305 2.73741334,13 3.6470588,13 L28.3529412,13 C29.2625866,13 30,13.8954305 30,15 C30,16.1045695 29.2625866,17 28.3529412,17 L3.6470588,17 C2.73741334,17 2,16.1045695 2,15 L2,15 Z" id="路径" fill="#FFFFFF" fill-rule="nonzero"></path>
                </g>
            </g>
        </g>
    </g>
</svg>