<?xml version="1.0" encoding="UTF-8"?>
<svg width="40px" height="38px" viewBox="0 0 40 38" version="1.1" xmlns="http://www.w3.org/2000/svg" xmlns:xlink="http://www.w3.org/1999/xlink">
    <title>切图备份 11</title>
    <defs>
        <filter id="filter-1">
            <feColorMatrix in="SourceGraphic" type="matrix" values="0 0 0 0 0.627451 0 0 0 0 0.627451 0 0 0 0 0.631373 0 0 0 1.000000 0"></feColorMatrix>
        </filter>
    </defs>
    <g id="中小桥轻量化H5界面" stroke="none" stroke-width="1" fill="none" fill-rule="evenodd">
        <g id="切图" transform="translate(-734.000000, -360.000000)">
            <g filter="url(#filter-1)" id="编组">
                <g transform="translate(753.500000, 378.500000) scale(-1, 1) translate(-753.500000, -378.500000) translate(737.000000, 361.000000)">
                    <path d="M3.27326189,0 C1.47059592,0 0,1.32811338 0,2.96481781 L0,32.034876 C0,33.0583045 0.573575536,33.9997025 1.53097229,34.5426665 C2.06573445,34.8473514 2.66518557,35 3.27326189,35 C3.75627287,35 4.23928385,34.9020384 4.69210664,34.7067276 L16.5,29.57396 L28.3078934,34.7067276 C29.3256665,35.14813 30.5073183,35.0895367 31.4690277,34.5426665 C32.4264245,33.9957963 33,33.0583045 33,32.034876 L33,2.96481781 C33,1.3320196 31.5294041,0 29.7267381,0 L3.27326189,0 Z M30.5789697,32.6617875 L17.8827383,27.4143385 C16.9135958,27.015293 15.8053418,27.015293 14.8361993,27.4143385 L2.13533086,32.6617875 L2.13533086,2.96481781 L30.5789697,2.96481781 L30.5836067,32.6617875 L30.5789697,32.6617875 Z" id="形状" fill="#000000" fill-rule="nonzero"></path>
                    <path d="M24.1111117,11.6530612 L20.2191049,11.1595547 L18.4808448,8.07606679 C18.1077548,7.41187384 17.3488559,7 16.5009241,7 C15.6529924,7 14.8983331,7.41187384 14.5210035,8.07606679 L12.7827434,11.1595547 L8.89497626,11.6530612 C8.05552382,11.7606679 7.37293875,12.2615955 7.11007991,12.9666048 C6.84722106,13.6716141 7.06344366,14.432282 7.66971487,14.9480519 L10.4848483,17.3487941 L9.81922188,20.7402597 C9.67507348,21.471243 10.0100065,22.1948052 10.6968312,22.6289425 C11.3794163,23.0630798 12.2739843,23.1187384 13.0244039,22.7773655 L16.5009241,21.1781076 L19.9774443,22.7773655 C20.3038981,22.9257885 20.6557898,23 21.0076814,23 C21.4613249,23 21.9149684,22.8738404 22.305017,22.6289425 C22.9918418,22.1948052 23.3267748,21.4675325 23.1826264,20.7402597 L22.517,17.3487941 L25.3321334,14.9480519 C25.9384046,14.432282 26.1503876,13.6716141 25.8917684,12.9666048 C25.6289095,12.2615955 24.9463245,11.7569573 24.1111117,11.6530612 Z M20.9457155,15.8439606 C20.2626319,16.4651002 19.9516344,17.3681015 20.1126867,18.2502241 L20.6458252,21.1836735 L17.8468482,19.8004634 C17.0027123,19.3828905 15.9975241,19.3828905 15.1533882,19.8004634 L12.3544112,21.1836735 L12.8875497,18.2554438 C13.0486019,17.3733211 12.7376045,16.4703198 12.0545208,15.8439606 L9.7886823,13.7665356 L12.9153173,13.3385234 C13.8594167,13.2080319 14.6702314,12.6547478 15.0922994,11.8509201 L16.4917879,9.18367347 L17.8912764,11.8509201 C18.3133443,12.6547478 19.1241591,13.2080319 20.0682585,13.3385234 L23.200447,13.7665356 L20.9457155,15.8439606 L20.9457155,15.8439606 Z" id="形状" fill="#000000" fill-rule="nonzero"></path>
                </g>
            </g>
        </g>
    </g>
</svg>