<?xml version="1.0" encoding="UTF-8"?>
<svg width="40px" height="38px" viewBox="0 0 40 38" version="1.1" xmlns="http://www.w3.org/2000/svg" xmlns:xlink="http://www.w3.org/1999/xlink">
    <title>切图</title>
    <defs>
        <filter id="filter-1">
            <feColorMatrix in="SourceGraphic" type="matrix" values="0 0 0 0 0.627451 0 0 0 0 0.627451 0 0 0 0 0.631373 0 0 0 1.000000 0"></feColorMatrix>
        </filter>
    </defs>
    <g id="中小桥轻量化H5界面" stroke="none" stroke-width="1" fill="none" fill-rule="evenodd">
        <g id="切图" transform="translate(-168.000000, -523.000000)">
            <g filter="url(#filter-1)" id="编组备份-19">
                <g transform="translate(171.000000, 524.000000)">
                    <path d="M17.8336587,1.72776829 C17.5756591,1.57634033 17.2879321,1.5 17,1.5 C16.7120679,1.5 16.4243409,1.57634033 16.1662081,1.72784646 L2.21717566,9.91689468 C1.78386894,10.1716455 1.5,10.6285983 1.5,11.1237032 L1.5,34.0633256 C1.5,34.4528896 1.67032799,34.8027993 1.935304,35.0574957 C2.22220988,35.3332712 2.61943486,35.5 3.05519895,35.5 L30.9535302,35.5 C31.3856667,35.5 31.7800483,35.3329347 32.0652083,35.0580519 C32.3296568,34.8031342 32.5,34.4530631 32.5,34.0633256 L32.5,11.1237032 C32.5,10.6285983 32.216131,10.1716455 31.7820045,9.91641307 L17.8336587,1.72776829 Z" id="形状" stroke="#979797" stroke-width="3" fill-rule="nonzero"></path>
                    <path d="M17.0039235,25 L12.4393182,21.2432637 C11.8939576,20.7663531 11.8506003,19.9683239 12.3414366,19.4416641 C12.8322728,18.9150043 13.6795255,18.8504658 14.2541613,19.2959646 L17.0039235,21.5706857 L19.7628516,19.304581 C20.338757,18.8735977 21.1732598,18.9439928 21.6583398,19.4644762 C22.1434198,19.9849597 22.1079152,20.7718775 21.5776947,21.2518801 L17.0039235,25 Z" id="路径" fill="#A2A2A3" fill-rule="nonzero"></path>
                </g>
            </g>
        </g>
    </g>
</svg>