<?xml version="1.0" encoding="UTF-8"?>
<svg width="40px" height="38px" viewBox="0 0 40 38" version="1.1" xmlns="http://www.w3.org/2000/svg" xmlns:xlink="http://www.w3.org/1999/xlink">
    <title>切图备份 7</title>
    <g id="中小桥轻量化H5界面" stroke="none" stroke-width="1" fill="none" fill-rule="evenodd">
        <g id="切图" transform="translate(-168.000000, -668.000000)" fill-rule="nonzero">
            <g id="编组备份-20" transform="translate(171.000000, 669.000000)">
                <path d="M30.9535302,37 L3.05519895,37 C1.37047495,37 0,35.6826918 0,34.0633256 L0,11.1237032 C0,10.1084529 0.558664942,9.15193607 1.45776634,8.62333468 L15.406932,0.434208288 C16.3933248,-0.144736096 17.6066752,-0.144736096 18.593068,0.434208288 L32.5422336,8.62333468 C33.441335,9.15193607 34,10.1084529 34,11.1237032 L34,34.0633256 C34,35.6826917 32.629525,37 30.9535302,37 Z" id="形状" fill="#504D4B"></path>
                <path d="M17.0039235,25 L12.4393182,21.2432637 C11.8939576,20.7663531 11.8506003,19.9683239 12.3414366,19.4416641 C12.8322728,18.9150043 13.6795255,18.8504658 14.2541613,19.2959646 L17.0039235,21.5706857 L19.7628516,19.304581 C20.338757,18.8735977 21.1732598,18.9439928 21.6583398,19.4644762 C22.1434198,19.9849597 22.1079152,20.7718775 21.5776947,21.2518801 L17.0039235,25 Z" id="路径" fill="#FFFFFF"></path>
            </g>
        </g>
    </g>
</svg>