<?xml version="1.0" encoding="UTF-8"?>
<svg width="40px" height="38px" viewBox="0 0 40 38" version="1.1" xmlns="http://www.w3.org/2000/svg" xmlns:xlink="http://www.w3.org/1999/xlink">
    <title>切图备份 8</title>
    <g id="中小桥轻量化H5界面" stroke="none" stroke-width="1" fill="none" fill-rule="evenodd">
        <g id="切图" transform="translate(-342.000000, -668.000000)" fill-rule="nonzero">
            <g id="编组备份-22" transform="translate(342.000000, 670.000000)">
                <path d="M36.2142857,0 L2.78571429,0 C1.24906225,0.00441120239 0.00447034096,1.23253829 0,2.7488618 L0,24.7465424 C0.00451788372,26.2628464 1.24908203,27.4909461 2.78571429,27.4954042 L5.58061272,27.4954042 L5.58061272,27.505283 L19.5091842,27.505283 C19.5614163,27.505283 20.9199308,21.9802998 23.5847277,10.9303335 C24.9449397,10.7489516 26.0101708,9.64532654 26.0101708,8.25328575 C26.0101708,6.7351313 24.762964,5.50442395 23.2244565,5.50442395 C21.685949,5.50442395 20.4387422,6.7351313 20.4387422,8.25328575 C20.4387422,8.85545829 20.6750926,9.38289614 21.0078114,9.83577113 L19.0943012,24.7563782 C30.0912273,24.748249 35.3336031,24.7449704 34.8214286,24.7465424 L16.7142857,24.7465424 L16.7142857,30.2511382 L6.97346987,30.2511382 C6.20421611,30.2511382 5.58061272,30.8664919 5.58061272,31.6255691 C5.58061272,32.3846463 6.20421611,33 6.97346987,33 L29.2591842,33 C30.0284379,33 30.6520413,32.3846463 30.6520413,31.6255691 C30.6520413,30.8664919 30.0284379,30.2511382 29.2591842,30.2511382 L19.5,30.2511382 L19.5,27.5022764 L19.5091842,27.5022764 L36.2142857,27.4954042 C37.750918,27.4909461 38.9954821,26.2628464 39,24.7465424 L39,2.7488618 C38.9955297,1.23253829 37.7509377,0.00441120239 36.2142857,0 Z" id="-" fill="#504D4B"></path>
                <path d="M7.45139397,27.4119935 C7.55901333,27.3693591 8.16635839,26.9167816 8.25920759,26.8482191 C8.30978285,26.8193835 6.06828508,24.7914433 6.11464286,24.7563782 C6.20846351,24.6681507 8.0731559,26.9591537 8.13763728,26.8482191 C8.16601847,26.815999 8.19274831,26.782398 8.21772656,26.747542 L8.25324442,26.6779185 C8.25494196,26.6736234 8.2575971,26.6703591 8.25920759,26.6661929 L12.5879464,18.178309 L14.3562221,21.6315666 C14.7026539,22.3082583 15.537771,22.5819823 16.225654,22.2443051 C16.4732344,22.1218089 16.6452958,21.9233325 16.776529,21.7031229 C16.8129174,21.6512811 16.8635826,21.6142144 16.8931808,21.5563165 L23.5847277,10.9303335 C24.9449397,10.7489516 26.0101708,9.64532654 26.0101708,8.25328575 C26.0101708,6.7351313 24.762964,5.50442395 23.2244565,5.50442395 C21.685949,5.50442395 20.4387422,6.7351313 20.4387422,8.25328575 C20.4387422,8.85545829 20.6750926,9.38289614 21.0078114,9.83577113 L15.7293181,18.2179957 L13.8284598,14.5053572 C13.8013305,14.467137 13.7720945,14.4304159 13.7408839,14.3953597 C13.6458376,14.2356801 13.5131398,14.1009953 13.3540614,14.002745 C13.3035703,13.9686848 13.2678783,13.920365 13.2117288,13.8925328 C13.1769074,13.8753524 13.1386038,13.8775858 13.1029118,13.8634979 C12.8555612,13.7571322 12.579704,13.7336725 12.317558,13.7967092 C12.2323605,13.8110815 12.1487346,13.8333868 12.0678013,13.8633261 C12.0321094,13.877414 11.9938058,13.8752235 11.9589844,13.8925328 C11.9028783,13.920365 11.8671864,13.9686848 11.8165212,14.002745 C11.7473056,14.0467833 11.6824149,14.0971118 11.6226964,14.1530733 C11.5489038,14.2263728 11.4840843,14.3079651 11.4295681,14.3961758 C11.3985351,14.4309751 11.369473,14.4674387 11.3425145,14.5054001 L6.11464286,24.7465424 L5.39920511,26.8482191 C6.71108658,27.2406725 7.39514953,27.4285973 7.45139397,27.4119935 Z" id="-" fill="#FFFFFF"></path>
            </g>
        </g>
    </g>
</svg>