<?xml version="1.0" encoding="UTF-8"?>
<svg width="40px" height="38px" viewBox="0 0 40 38" version="1.1" xmlns="http://www.w3.org/2000/svg" xmlns:xlink="http://www.w3.org/1999/xlink">
    <title>切图备份 6</title>
    <defs>
        <filter id="filter-1">
            <feColorMatrix in="SourceGraphic" type="matrix" values="0 0 0 0 0.635294 0 0 0 0 0.635294 0 0 0 0 0.639216 0 0 0 1.000000 0"></feColorMatrix>
        </filter>
        <filter id="filter-2">
            <feColorMatrix in="SourceGraphic" type="matrix" values="0 0 0 0 0.635294 0 0 0 0 0.635294 0 0 0 0 0.639216 0 0 0 1.000000 0"></feColorMatrix>
        </filter>
    </defs>
    <g id="中小桥轻量化H5界面" stroke="none" stroke-width="1" fill="none" fill-rule="evenodd">
        <g id="切图" transform="translate(-530.000000, -523.000000)">
            <g filter="url(#filter-1)" id="编组备份-15">
                <g transform="translate(533.000000, 525.000000)">
                    <path d="M24.9326261,34 L8.06737387,34 C3.61889054,34 0,30.4109736 0,26 C0,21.5890264 3.61889054,18 8.06737387,18 L24.9326261,18 C29.3811095,18 33,21.5886677 33,26 C33,30.4113323 29.3811095,34 24.9326261,34 Z M7.83878575,19.9990528 C4.81665631,19.9990528 2.00577873,22.874121 2.00577873,25.9067833 C2.00577873,28.9394456 4.81665631,31.8145138 7.83878575,31.8145138 L24.8769903,31.8145138 C27.8991198,31.8145138 31.357888,28.9394456 31.357888,25.9067833 C31.357888,22.874121 27.8991198,19.9990528 24.8769903,19.9990528 L7.83878575,19.9990528 Z" id="形状" fill="#474747" fill-rule="nonzero"></path>
                    <path d="M24.5,29 C22.5703002,29 21,27.4300948 21,25.5 C21,23.5699052 22.5699052,22 24.5,22 C26.4300948,22 28,23.5699052 28,25.5 C28,27.4300948 26.4300948,29 24.5,29 Z M24.5,24.1646919 C23.7634281,24.1646919 23.164297,24.7638231 23.164297,25.5003949 C23.164297,26.2369668 23.7634281,26.8360979 24.5,26.8360979 C25.2365719,26.8360979 25.835703,26.2369668 25.835703,25.5003949 C25.835703,24.7638231 25.2365719,24.1646919 24.5,24.1646919 Z" id="形状" fill="#4F95FC" fill-rule="nonzero"></path>
                    <path d="M24.9326261,16 L8.06737387,16 C3.61889054,16 0,12.4109736 0,8 C0,3.58902636 3.61889054,0 8.06737387,0 L24.9326261,0 C29.3811095,0 33,3.58866774 33,8 C33,12.4113323 29.3811095,16 24.9326261,16 Z M7.83878575,1.9990528 C4.81665631,1.9990528 2.00577873,4.87412098 2.00577873,7.90678329 C2.00577873,10.9394456 4.81665631,13.8145138 7.83878575,13.8145138 L24.8769903,13.8145138 C27.8991198,13.8145138 31.357888,10.9394456 31.357888,7.90678329 C31.357888,4.87412098 27.8991198,1.9990528 24.8769903,1.9990528 L7.83878575,1.9990528 Z" id="形状" fill="#474747" fill-rule="nonzero"></path>
                    <path d="M8.5,11 C6.57030016,11 5,9.43009479 5,7.5 C5,5.56990521 6.56990521,4 8.5,4 C10.4300948,4 12,5.56990521 12,7.5 C12,9.43009479 10.4300948,11 8.5,11 Z M8.5,6.16469194 C7.76342812,6.16469194 7.164297,6.76382306 7.164297,7.50039494 C7.164297,8.23696682 7.76342812,8.83609795 8.5,8.83609795 C9.23657188,8.83609795 9.835703,8.23696682 9.835703,7.50039494 C9.835703,6.76382306 9.23657188,6.16469194 8.5,6.16469194 Z" id="形状" fill="#4F95FC" fill-rule="nonzero"></path>
                </g>
            </g>
            <g filter="url(#filter-2)" id="编组备份-17">
                <g transform="translate(564.500000, 531.500000) scale(-1, 1) translate(-564.500000, -531.500000) translate(561.000000, 528.000000)"></g>
            </g>
        </g>
    </g>
</svg>