<?xml version="1.0" encoding="UTF-8"?>
<svg width="40px" height="38px" viewBox="0 0 40 38" version="1.1" xmlns="http://www.w3.org/2000/svg" xmlns:xlink="http://www.w3.org/1999/xlink">
    <title>切图备份 9</title>
    <defs>
        <filter id="filter-1">
            <feColorMatrix in="SourceGraphic" type="matrix" values="0 0 0 0 0.635294 0 0 0 0 0.635294 0 0 0 0 0.639216 0 0 0 1.000000 0"></feColorMatrix>
        </filter>
    </defs>
    <g id="中小桥轻量化H5界面" stroke="none" stroke-width="1" fill="none" fill-rule="evenodd">
        <g id="切图" transform="translate(-530.000000, -668.000000)">
            <g id="编组备份-16" transform="translate(533.000000, 670.000000)" fill-rule="nonzero">
                <path d="M24.9326261,34 L8.06737387,34 C3.61889054,34 0,30.4109736 0,26 C0,21.5890264 3.61889054,18 8.06737387,18 L24.9326261,18 C29.3811095,18 33,21.5886677 33,26 C33,30.4113323 29.3811095,34 24.9326261,34 Z" id="形状" fill="#504D4B"></path>
                <path d="M24.5,29 C22.5703002,29 21,27.4300948 21,25.5 C21,23.5699052 22.5699052,22 24.5,22 C26.4300948,22 28,23.5699052 28,25.5 C28,27.4300948 26.4300948,29 24.5,29 Z" id="形状" fill="#FFFFFF"></path>
                <path d="M24.9326261,16 L8.06737387,16 C3.61889054,16 0,12.4109736 0,8 C0,3.58902636 3.61889054,0 8.06737387,0 L24.9326261,0 C29.3811095,0 33,3.58866774 33,8 C33,12.4113323 29.3811095,16 24.9326261,16 Z" id="形状" fill="#474747"></path>
                <path d="M8.5,11 C6.57030016,11 5,9.43009479 5,7.5 C5,5.56990521 6.56990521,4 8.5,4 C10.4300948,4 12,5.56990521 12,7.5 C12,9.43009479 10.4300948,11 8.5,11 Z" id="形状" fill="#FFFFFF"></path>
            </g>
            <g filter="url(#filter-1)" id="编组备份-18">
                <g transform="translate(564.500000, 676.500000) scale(-1, 1) translate(-564.500000, -676.500000) translate(561.000000, 673.000000)"></g>
            </g>
        </g>
    </g>
</svg>