<?xml version="1.0" encoding="UTF-8"?>
<svg width="40px" height="38px" viewBox="0 0 40 38" version="1.1" xmlns="http://www.w3.org/2000/svg" xmlns:xlink="http://www.w3.org/1999/xlink">
    <title>切图备份 5</title>
    <defs>
        <filter id="filter-1">
            <feColorMatrix in="SourceGraphic" type="matrix" values="0 0 0 0 0.627451 0 0 0 0 0.627451 0 0 0 0 0.631373 0 0 0 1.000000 0"></feColorMatrix>
        </filter>
        <polygon id="path-2" points="0.00303680982 0.0071161102 32.9840061 0.0071161102 32.9840061 36.0000501 0.00303680982 36.0000501"></polygon>
    </defs>
    <g id="中小桥轻量化H5界面" stroke="none" stroke-width="1" fill="none" fill-rule="evenodd">
        <g id="切图" transform="translate(-705.000000, -523.000000)">
            <g filter="url(#filter-1)" id="wode备份-2">
                <g transform="translate(709.000000, 524.000000)">
                    <g id="编组">
                        <mask id="mask-3" fill="white">
                            <use xlink:href="#path-2"></use>
                        </mask>
                        <g id="Clip-2"></g>
                        <path d="M14.9612485,18.0507204 C13.8161181,18.0507204 12.6701779,17.8620083 11.5865429,17.4213463 C9.29547239,16.5396217 7.57481595,14.8388595 6.55702914,12.6340473 C5.53742025,10.431338 5.53742025,7.97402503 6.42892638,5.70682615 C7.32195092,3.43982754 9.03946933,1.7390153 11.2676273,0.731365786 C13.4948236,-0.15050904 23.0457423,-0.402258693 24.2561135,0.983866481 C24.8899969,1.6752267 24.7642224,3.06215299 23.9356288,6.65228929 C23.8719571,6.83964951 23.8719571,7.02996384 23.8084877,7.09295132 C23.7464356,7.533363 23.681954,7.91183866 23.619092,8.28776078 C23.0459448,12.1933853 22.4725951,15.5940083 18.5889709,17.2955716 C17.4446503,17.7988206 16.2348865,18.0507204 14.9612485,18.0507204 Z M19.352931,18.4911822 C25.6547163,20.0668206 30.1118931,24.916306 30.1118931,30.3954159 C30.1142209,34.5509875 22.0289172,36.0000501 15.0891488,36.0000501 C11.2691963,36.0000501 7.70352607,35.5596384 5.0295138,34.740701 C0.891253067,33.4813519 0,31.7177524 0,30.3954159 C0,24.8519666 4.32745399,20.0668206 10.7587086,18.4911822 C11.0129908,18.4289958 11.2047653,18.4911822 11.3957301,18.6169569 C13.1124387,19.9410459 15.4074571,20.1917942 17.4436887,19.3736579 C17.8890874,19.1833435 18.3353466,18.9308428 18.7174785,18.6169569 C18.9059126,18.4911822 19.1629279,18.4289958 19.352931,18.4911822 Z M17.6518724,1.93195126 C19.534579,1.93195126 21.7393202,1.90894193 22.516739,2.71784826 C22.516739,3.09143693 22.5282516,4.39586935 21.5134742,6.37303731 C21.4575875,6.63920229 21.1203267,6.94736875 21.1203267,7 C21.0656291,7.37163937 21.569581,7.93499136 21.5134742,8.25463512 C21.5134742,11.4051009 20.6182439,14.3391216 18.0692572,15.4058156 C16.5733091,16.0449336 14.1612031,15.9916667 12.611218,15.4058156 C11.0594714,14.8193712 9.33780066,12.8156291 8.67407498,11.3232237 C8.00832348,9.83060644 7.70287889,8.13298361 8.31239142,6.64053585 C8.92084699,5.14711344 11.0285263,3.56684541 12.578159,2.9277274 C13.4106457,2.60693949 15.6585374,1.93195126 17.6518724,1.93195126 Z M11.0777362,20.4254131 C6.06545469,21.7423909 2.5288819,25.5798201 2.5288819,29.7608583 C2.5288819,31.8208728 8.01194085,33.4254131 15.0288819,33.4254131 C22.0451198,33.4254131 27.5288819,31.8222842 27.5288819,29.7608583 C27.5288819,25.5229086 24.0499668,21.7423909 18.9776369,20.4254131 C18.5654547,20.7115641 18.2119146,20.8838922 17.7995449,21.0549909 C15.6188654,22.0292704 13.0831458,21.7423909 11.0777362,20.4254131 Z" id="Fill-3" stroke="#073A77" stroke-width="0.3" fill="#073A77" mask="url(#mask-3)"></path>
                    </g>
                    <path d="M14.7020714,13.0768481 C14.2169627,13.0768481 13.7916302,12.6301401 13.7916302,12.1178249 C13.7916302,11.6072362 14.1562698,11.158954 14.7020714,11.158954 C14.8232641,11.158954 15.9768144,11.0966475 16.6439533,10.1359994 C17.2511714,9.30626101 17.1904785,8.34901512 17.1297857,8.09293369 C17.0690928,7.5815833 17.3721711,7.07099461 17.9188893,7.00792637 C18.4039497,6.94480735 18.8898303,7.2640078 18.9497512,7.77454571 C19.0111678,8.22145681 19.1928604,9.88230458 18.100003,11.3509516 C16.8872555,12.9493405 15.0657943,13.0768481 14.7020714,13.0768481 Z M18.0400338,27 L11.7283625,27 C11.3032231,27 11,26.6800379 11,26.2333299 C11,23.9347921 12.7607683,22.0809311 14.882992,22.0809311 C17.0076763,22.0809311 18.7692165,23.9347921 18.7692165,26.2333299 C18.7676727,26.6185438 18.4646426,27 18.0400338,27 Z M12.578159,25.4680816 L17.2519433,25.4680816 C16.9464045,24.3830743 16.0377002,23.6140175 14.9438779,23.6140175 C13.8532398,23.6157948 12.8811891,24.3832774 12.578159,25.4680816 Z" id="Fill-4" fill="#073A77"></path>
                </g>
            </g>
        </g>
    </g>
</svg>